<?xml version="1.0" encoding="UTF-8"?>
<svg version="1.1" xmlns="http://www.w3.org/2000/svg" width="512" height="512">
<path d="M0 0 C1.04188477 0.21962402 2.08376953 0.43924805 3.15722656 0.66552734 C49.45049311 10.76314785 91.86413721 33.12228758 126 66 C126.9890332 66.94818604 126.9890332 66.94818604 127.99804688 67.91552734 C137.48630305 77.05997479 146.2262044 86.35734009 154 97 C154.85806152 98.15105017 155.71613451 99.30209177 156.57421875 100.453125 C162.61177396 108.64275981 167.99457302 117.14538276 173 126 C173.4021875 126.70721191 173.804375 127.41442383 174.21875 128.14306641 C187.2441741 151.27845836 195.99301461 176.44962409 201.3125 202.4375 C201.45985596 203.15639404 201.60721191 203.87528809 201.7590332 204.6159668 C204.73289088 220.26225609 205.37300362 235.73568046 205.3125 251.625 C205.31034485 252.64290619 205.3081897 253.66081238 205.30596924 254.70956421 C205.25629854 269.31863523 205.00540191 283.65075853 202 298 C201.70198486 299.46228027 201.70198486 299.46228027 201.39794922 300.95410156 C195.81276957 327.65418882 186.64709189 352.84977429 174 377 C175.35231873 378.66816642 176.70697067 380.33444142 178.0625 382 C178.8771875 383.00417969 179.691875 384.00835937 180.53125 385.04296875 C183.15223864 388.18234913 185.90718261 391.14670354 188.78515625 394.05078125 C190.5273381 396.84611483 190.28678515 398.74226905 190 402 C188.60717773 404.69042969 188.60717773 404.69042969 186.68359375 407.421875 C175.97030607 422.90085319 175.97030607 422.90085319 175.1640625 440.9609375 C175.30489258 441.6322168 175.44572266 442.30349609 175.59082031 442.99511719 C176.25603012 446.25448646 176.5663587 449.49975008 176.875 452.8125 C177.08769531 454.43091797 177.08769531 454.43091797 177.3046875 456.08203125 C176.97506346 459.23881529 176.30270907 460.64675066 173.91210938 462.73852539 C169.37954279 465.72879244 164.29643414 467.70467015 159.3125 469.8125 C158.15943359 470.31458984 157.00636719 470.81667969 155.81835938 471.33398438 C147.31420068 475 147.31420068 475 145 475 C144.73123047 475.71639648 144.46246094 476.43279297 144.18554688 477.17089844 C142.10943367 482.12518177 139.23410471 486.63582763 136.5 491.25 C135.90574219 492.26835937 135.31148438 493.28671875 134.69921875 494.3359375 C133.84263672 495.78613281 133.84263672 495.78613281 132.96875 497.265625 C132.44732422 498.15024414 131.92589844 499.03486328 131.38867188 499.94628906 C130 502 130 502 128 503 C120.75622132 503.08084574 113.57948074 501.10504641 106.59765625 499.37231445 C96.09753535 496.86566344 90.08559139 498.39084078 80.4375 503 C67.34720259 509.22946629 67.34720259 509.22946629 62 508 C59.35845642 506.02793751 57.30786625 503.69878558 55.1875 501.1875 C54.61580078 500.54490234 54.04410156 499.90230469 53.45507812 499.24023438 C51.10051418 496.57025293 48.97872893 493.96809339 47 491 C41.03284218 491.68541678 35.63328882 493.7772022 30 495.75 C18.46215419 499.67369177 6.97006591 502.73212631 -5 505 C-5.80937012 505.16371094 -6.61874023 505.32742188 -7.45263672 505.49609375 C-21.86859486 508.31350693 -36.42978718 508.3120595 -51.0625 508.375 C-52.03002197 508.38294586 -52.99754395 508.39089172 -53.99438477 508.39907837 C-68.23045179 508.48875462 -81.95710286 507.33106461 -96 505 C-97.13751709 504.81195801 -98.27503418 504.62391602 -99.44702148 504.43017578 C-102.04213824 503.96355098 -104.61324854 503.44483131 -107.1875 502.875 C-108.57642456 502.56804199 -108.57642456 502.56804199 -109.9934082 502.25488281 C-154.44409585 491.91905661 -195.17940564 469.61092102 -228 438 C-228.65935547 437.36787598 -229.31871094 436.73575195 -229.99804688 436.08447266 C-239.48630305 426.94002521 -248.2262044 417.64265991 -256 407 C-256.85806152 405.84894983 -257.71613451 404.69790823 -258.57421875 403.546875 C-264.61177396 395.35724019 -269.99457302 386.85461724 -275 378 C-275.4021875 377.29278809 -275.804375 376.58557617 -276.21875 375.85693359 C-290.97220851 349.65225553 -300.50170334 320.71453614 -305 291 C-305.17732666 289.88117432 -305.35465332 288.76234863 -305.53735352 287.60961914 C-307.21876341 275.88764053 -307.35734341 264.26501024 -307.3125 252.4375 C-307.30926727 250.90689438 -307.30926727 250.90689438 -307.30596924 249.34536743 C-307.25633352 234.71789476 -307.00919712 220.36736162 -304 206 C-303.80132324 205.02514648 -303.60264648 204.05029297 -303.39794922 203.04589844 C-297.77817773 176.18044405 -288.65379429 150.88863698 -275.625 126.75 C-275.02884888 125.6357666 -275.02884888 125.6357666 -274.4206543 124.49902344 C-272.28023521 120.6415283 -270.16027159 117.12138406 -267.2355957 113.81005859 C-256.7328916 101.38226587 -257.57954785 88.78618036 -257.9375 73.125 C-257.9733194 69.40122453 -257.99383039 65.67774694 -258.00697327 61.9538269 C-258.02033668 59.65217714 -258.04976941 57.35055273 -258.09690857 55.04934692 C-258.12036095 53.50535721 -258.12036095 53.50535721 -258.14428711 51.93017578 C-258.17406898 50.57027023 -258.17406898 50.57027023 -258.20445251 49.18289185 C-258 47 -258 47 -256 45 C-253.83056641 44.80227661 -253.83056641 44.80227661 -251.1015625 44.87158203 C-250.07869141 44.89044464 -249.05582031 44.90930725 -248.00195312 44.92874146 C-246.33036133 44.96788162 -246.33036133 44.96788162 -244.625 45.0078125 C-242.25262649 45.02652279 -239.88022606 45.04203809 -237.5078125 45.0546875 C-233.77649888 45.08098493 -230.04947394 45.12368735 -226.31933594 45.22265625 C-209.72835374 45.63220022 -198.85431788 44.34236585 -185.95100403 33.52539062 C-182.58075829 30.89036723 -178.86848522 28.86556192 -175.125 26.8125 C-173.8721521 26.12003174 -173.8721521 26.12003174 -172.59399414 25.41357422 C-148.75147861 12.9164455 -123.4846137 3.94729415 -97 -1 C-96.19498047 -1.16226074 -95.38996094 -1.32452148 -94.56054688 -1.49169922 C-64.53876741 -7.36157499 -29.84227969 -6.30893832 0 0 Z " fill="#46BFD7" transform="translate(307,4)"/>
<path d="M0 0 C1.04188477 0.21962402 2.08376953 0.43924805 3.15722656 0.66552734 C48.33639994 10.52013864 91.97994987 32.2495013 125 65 C125 65.33 125 65.66 125 66 C124.24074661 66.00173625 123.48149323 66.0034725 122.69923216 66.00526136 C77.7486836 66.10817982 32.79815004 66.21626848 -12.1523697 66.33111694 C-17.54371838 66.34488733 -22.93506716 66.3586143 -28.32641602 66.37231445 C-29.39978441 66.37504276 -30.4731528 66.37777106 -31.57904751 66.38058204 C-48.9830219 66.42471608 -66.38700283 66.46532933 -83.79098868 66.50465261 C-101.63502936 66.54504812 -119.47905787 66.58920123 -137.3230806 66.63687855 C-148.34316438 66.66620352 -159.36324719 66.69256033 -170.3833468 66.71517897 C-177.92939292 66.73094728 -185.47542411 66.75034921 -193.02145367 66.77266841 C-197.3819756 66.78545653 -201.74248595 66.7965853 -206.10302162 66.80341911 C-210.08828858 66.80969996 -214.07351571 66.82050193 -218.05876089 66.8350333 C-219.50694782 66.8394918 -220.95514117 66.84223333 -222.40333467 66.84316199 C-224.35900396 66.84465707 -226.31466494 66.85278722 -228.27031612 66.8613348 C-229.90558173 66.86532186 -229.90558173 66.86532186 -231.573883 66.86938947 C-233.94902678 66.72633607 -233.94902678 66.72633607 -235 68 C-235.10271912 69.91811396 -235.13400777 71.84006186 -235.1386652 73.76091862 C-235.14413964 75.02041547 -235.14961409 76.27991232 -235.15525442 77.57757574 C-235.15633083 78.99345395 -235.15731549 80.40933224 -235.15821838 81.82521057 C-235.16277994 83.31512792 -235.16777936 84.80504399 -235.17318195 86.29495853 C-235.18681877 90.40866451 -235.19419736 94.52236219 -235.20060861 98.63608491 C-235.20858833 103.06488486 -235.22229439 107.49366738 -235.23532104 111.92245483 C-235.25711839 119.6021171 -235.27525091 127.2817811 -235.29092598 134.96145821 C-235.31359502 146.0651155 -235.3417419 157.16875354 -235.37124526 168.27239453 C-235.41895763 186.28534763 -235.4622119 204.29830859 -235.50268555 222.3112793 C-235.54202196 239.81388969 -235.5834437 257.31649309 -235.62768555 274.8190918 C-235.63040982 275.89713448 -235.63313409 276.97517716 -235.63594092 278.0858878 C-235.64962009 283.49386697 -235.66334042 288.90184604 -235.67708123 294.30982506 C-235.79110324 339.20653547 -235.89789989 384.103261 -236 429 C-237.11278969 428.06101837 -238.22346023 427.11952502 -239.33325195 426.17700195 C-239.95198685 425.65298294 -240.57072174 425.12896393 -241.20820618 424.58906555 C-255.24027029 412.14462612 -265.87532279 394.21195907 -275 378 C-275.39928711 377.29713867 -275.79857422 376.59427734 -276.20996094 375.87011719 C-290.96778056 349.66087468 -300.50074452 320.72086987 -305 291 C-305.17732666 289.88117432 -305.35465332 288.76234863 -305.53735352 287.60961914 C-307.21876341 275.88764053 -307.35734341 264.26501024 -307.3125 252.4375 C-307.30926727 250.90689438 -307.30926727 250.90689438 -307.30596924 249.34536743 C-307.25633352 234.71789476 -307.00919712 220.36736162 -304 206 C-303.80132324 205.02514648 -303.60264648 204.05029297 -303.39794922 203.04589844 C-297.77817773 176.18044405 -288.65379429 150.88863698 -275.625 126.75 C-275.02884888 125.6357666 -275.02884888 125.6357666 -274.4206543 124.49902344 C-272.28023521 120.6415283 -270.16027159 117.12138406 -267.2355957 113.81005859 C-256.7328916 101.38226587 -257.57954785 88.78618036 -257.9375 73.125 C-257.9733194 69.40122453 -257.99383039 65.67774694 -258.00697327 61.9538269 C-258.02033668 59.65217714 -258.04976941 57.35055273 -258.09690857 55.04934692 C-258.12036095 53.50535721 -258.12036095 53.50535721 -258.14428711 51.93017578 C-258.17406898 50.57027023 -258.17406898 50.57027023 -258.20445251 49.18289185 C-258 47 -258 47 -256 45 C-253.83056641 44.80227661 -253.83056641 44.80227661 -251.1015625 44.87158203 C-250.07869141 44.89044464 -249.05582031 44.90930725 -248.00195312 44.92874146 C-246.33036133 44.96788162 -246.33036133 44.96788162 -244.625 45.0078125 C-242.25262649 45.02652279 -239.88022606 45.04203809 -237.5078125 45.0546875 C-233.77649888 45.08098493 -230.04947394 45.12368735 -226.31933594 45.22265625 C-209.72835374 45.63220022 -198.85431788 44.34236585 -185.95100403 33.52539062 C-182.58075829 30.89036723 -178.86848522 28.86556192 -175.125 26.8125 C-173.8721521 26.12003174 -173.8721521 26.12003174 -172.59399414 25.41357422 C-148.75147861 12.9164455 -123.4846137 3.94729415 -97 -1 C-96.19498047 -1.16226074 -95.38996094 -1.32452148 -94.56054688 -1.49169922 C-64.53876741 -7.36157499 -29.84227969 -6.30893832 0 0 Z " fill="#C0E9F1" transform="translate(307,4)"/>
<path d="M0 0 C2.52170037 2.12584773 4.52078497 4.54391755 6.5625 7.125 C7.10068359 7.77726562 7.63886719 8.42953125 8.19335938 9.1015625 C12.64662235 14.50335441 12.64662235 14.50335441 14.38623047 16.94824219 C18.42641505 22.33988198 22.54066416 23.61827396 29 25 C29.89831543 25.21140625 30.79663086 25.4228125 31.72216797 25.640625 C35.39376161 26.49822351 39.07324327 27.31458852 42.75976562 28.10546875 C44.0987793 28.40904297 44.0987793 28.40904297 45.46484375 28.71875 C46.265271 28.89341797 47.06569824 29.06808594 47.89038086 29.24804688 C50.31213918 30.11125896 51.4248572 30.98140002 53 33 C53.6953125 36.1171875 53.6953125 36.1171875 54.125 39.875 C54.20500244 40.53757812 54.28500488 41.20015625 54.36743164 41.8828125 C54.87517443 46.24887971 55.17787766 50.61187339 55.4375 55 C56.0291061 63.18221314 58.09694466 67.20752063 64 73 C65.72024553 74.84312021 67.428556 76.69744918 69.125 78.5625 C70.39730469 79.95662109 70.39730469 79.95662109 71.6953125 81.37890625 C72.45585937 82.24386719 73.21640625 83.10882813 74 84 C74.59554687 84.64839844 75.19109375 85.29679687 75.8046875 85.96484375 C77.48180391 88.82032626 77.28816346 90.71793048 77 94 C75.60717773 96.69042969 75.60717773 96.69042969 73.68359375 99.421875 C62.97030607 114.90085319 62.97030607 114.90085319 62.1640625 132.9609375 C62.30489258 133.6322168 62.44572266 134.30349609 62.59082031 134.99511719 C63.25603012 138.25448646 63.5663587 141.49975008 63.875 144.8125 C64.01679688 145.89144531 64.15859375 146.97039062 64.3046875 148.08203125 C63.97506346 151.23881529 63.30270907 152.64675066 60.91210938 154.73852539 C56.37954279 157.72879244 51.29643414 159.70467015 46.3125 161.8125 C45.15943359 162.31458984 44.00636719 162.81667969 42.81835938 163.33398438 C34.31420068 167 34.31420068 167 32 167 C31.5968457 168.07459473 31.5968457 168.07459473 31.18554688 169.17089844 C29.10943367 174.12518177 26.23410471 178.63582763 23.5 183.25 C22.90574219 184.26835937 22.31148437 185.28671875 21.69921875 186.3359375 C21.12816406 187.30273438 20.55710937 188.26953125 19.96875 189.265625 C19.44732422 190.15024414 18.92589844 191.03486328 18.38867188 191.94628906 C17 194 17 194 15 195 C7.75622132 195.08084574 0.57948074 193.10504641 -6.40234375 191.37231445 C-16.90246465 188.86566344 -22.91440861 190.39084078 -32.5625 195 C-45.60743889 201.20788089 -45.60743889 201.20788089 -51 200 C-53.54331591 198.15796187 -55.48019264 195.95353497 -57.5 193.5625 C-58.06678467 192.92594482 -58.63356934 192.28938965 -59.2175293 191.63354492 C-62.81512235 187.54938581 -66.16872043 183.33360473 -69.14453125 178.76953125 C-75.20446453 172.99026856 -86.06796142 172.41525013 -93.95117188 170.89453125 C-94.94310547 170.69214844 -95.93503906 170.48976563 -96.95703125 170.28125 C-97.85397705 170.10658203 -98.75092285 169.93191406 -99.67504883 169.75195312 C-102.37219558 168.87962172 -103.4348472 168.37117836 -105 166 C-105.45727539 162.89648438 -105.45727539 162.89648438 -105.59765625 159.09375 C-105.67710605 157.6952015 -105.75855403 156.29676536 -105.84179688 154.8984375 C-105.95847124 152.7110977 -106.06169344 150.52636946 -106.12866211 148.33691406 C-106.46361467 138.44397184 -108.05986257 132.38441637 -115.52075195 125.25683594 C-116.33890381 124.51208008 -117.15705566 123.76732422 -118 123 C-118.99648728 121.87442333 -119.97314919 120.73024162 -120.91015625 119.5546875 C-124.30492659 115.145051 -124.30492659 115.145051 -128 111 C-128.43994029 106.23722331 -127.68746977 103.84364743 -124.9375 99.98046875 C-123.98822632 98.58260132 -123.98822632 98.58260132 -123.01977539 97.15649414 C-122.35324951 96.17672607 -121.68672363 95.19695801 -121 94.1875 C-114.3588504 83.92316465 -112.06393486 77.11643416 -114 65 C-114.60191935 60.56859199 -115.16433108 56.16370091 -115.25 51.6875 C-115.28867187 50.45580078 -115.28867187 50.45580078 -115.328125 49.19921875 C-114.90678396 46.37523057 -114.21080276 45.78283949 -112 44 C-109.32714844 42.95458984 -109.32714844 42.95458984 -106.109375 41.9609375 C-88.13620297 35.80439491 -80.06233223 29.5056564 -71.4921875 12.2421875 C-71.05245605 11.2816748 -70.61272461 10.32116211 -70.15966797 9.33154297 C-69 7 -69 7 -67 5 C-59.33403458 4.36334986 -52.41657121 6.40417166 -45.04492188 8.31054688 C-33.34860062 11.17610522 -25.97706721 7.44599369 -15.44921875 2.41796875 C-5.47483245 -2.14436522 -5.47483245 -2.14436522 0 0 Z " fill="#F66937" transform="translate(420,312)"/>
<path d="M0 0 C0.69197707 -0.00226556 1.38395415 -0.00453111 2.09690022 -0.00686532 C4.41514203 -0.01319434 6.73332521 -0.01237666 9.05157471 -0.0115509 C10.71404089 -0.01454313 12.37650638 -0.01794581 14.03897095 -0.02172852 C18.55565983 -0.03056753 23.07232976 -0.03290663 27.58902645 -0.0335443 C30.41198613 -0.03425501 33.23494099 -0.03638976 36.05789948 -0.03904152 C45.90963548 -0.04829553 55.76135794 -0.05237645 65.61309814 -0.05158997 C74.79025653 -0.05098957 83.96735605 -0.06153372 93.14449954 -0.07733363 C101.02744534 -0.09042075 108.91037194 -0.09577335 116.79332852 -0.09513456 C121.49959713 -0.09487986 126.20581346 -0.09771539 130.91207123 -0.10831261 C135.34108834 -0.11801296 139.77000343 -0.11805948 144.1990242 -0.11079597 C145.82112655 -0.10975245 147.44323531 -0.1120992 149.06532669 -0.11815643 C162.62397819 -0.16549187 174.28770794 0.87950263 184.71661377 10.53996277 C194.05265831 20.61985476 194.05265831 20.61985476 194.18145752 27.44621277 C191.57093377 36.50626577 185.04141574 43.57133188 177.04083252 48.38371277 C170.75106382 51.64863087 165.05933345 53.38136908 157.91043091 53.40786743 C156.85575943 53.41572245 156.85575943 53.41572245 155.77978146 53.42373616 C153.43558775 53.43867729 151.09161345 53.43944 148.74737549 53.44010925 C147.06154515 53.44773489 145.37571828 53.45616308 143.68989563 53.46533203 C139.11727023 53.48724842 134.54471169 53.49607249 129.9720397 53.50115848 C127.11117484 53.50480648 124.25032736 53.51104896 121.38946915 53.51815987 C111.39694706 53.54264778 101.40447682 53.55570412 91.41192627 53.55924988 C82.11767062 53.56288106 72.82374601 53.59274823 63.52959144 53.63465446 C55.53528245 53.66942785 47.54108275 53.68479956 39.54669869 53.68549591 C34.77873432 53.68628655 30.01110708 53.69492614 25.24322128 53.72349358 C20.7532701 53.74979417 16.26393262 53.75181307 11.77393913 53.73583794 C10.13415239 53.73403273 8.49432939 53.74062948 6.85461998 53.75665665 C-7.50478775 53.88835325 -18.08128932 50.91941664 -28.51776123 40.75480652 C-32.73072135 36.08225075 -35.72609097 32.02614099 -36.06854248 25.63371277 C-32.58104513 15.3547732 -25.13980781 8.15293022 -15.63104248 3.25871277 C-10.22634077 0.65963647 -6.02303045 0.00814293 0 0 Z " fill="#3342AE" transform="translate(282.88104248046875,169.8662872314453)"/>
<path d="M0 0 C0.33 0 0.66 0 1 0 C1 99.66 1 199.32 1 302 C-26.44164437 274.55835563 -40.35070681 227.31770924 -46 190 C-46.17732666 188.88117432 -46.35465332 187.76234863 -46.53735352 186.60961914 C-48.21876341 174.88764053 -48.35734341 163.26501024 -48.3125 151.4375 C-48.30926727 149.90689438 -48.30926727 149.90689438 -48.30596924 148.34536743 C-48.25633352 133.71789476 -48.00919712 119.36736162 -45 105 C-44.80132324 104.02514648 -44.60264648 103.05029297 -44.39794922 102.04589844 C-36.74875479 65.47873826 -22.66677885 29.94356763 0 0 Z " fill="#FF9F22" transform="translate(48,105)"/>
<path d="M0 0 C1.51427582 0.00081573 1.51427582 0.00081573 3.05914307 0.00164795 C19.56873539 0.04241399 35.48532001 0.94970691 51.6875 4.375 C52.72938477 4.59462402 53.77126953 4.81424805 54.84472656 5.04052734 C89.49249906 12.59799918 123.31393826 26.89668929 151.6875 48.375 C151.6875 48.705 151.6875 49.035 151.6875 49.375 C52.0275 49.375 -47.6325 49.375 -150.3125 49.375 C-147.52983796 46.59233796 -145.60336457 44.73718587 -142.43359375 42.7109375 C-141.68770996 42.23382324 -140.94182617 41.75670898 -140.17333984 41.26513672 C-97.33106383 14.47900283 -50.58364088 -0.10290312 0 0 Z " fill="#FFB52C" transform="translate(255.3125,-0.375)"/>
<path d="M0 0 C0.99 0 1.98 0 3 0 C2.85852539 0.88703613 2.71705078 1.77407227 2.57128906 2.68798828 C1.12420264 12.4729883 0.68891299 21.99369172 0.75 31.875 C0.74955065 33.38354493 0.74906206 34.89208986 0.74853516 36.40063477 C0.77485574 44.01332165 1.09782776 51.41815958 2.375 58.9375 C3.360375 65.52931896 2.29154141 68.86884573 -1.39453125 74.3515625 C-4.12496296 78.85577831 -4.98150213 83.88070808 -6 89 C-7.13179688 89.04898438 -8.26359375 89.09796875 -9.4296875 89.1484375 C-10.91148339 89.22346514 -12.393253 89.29901297 -13.875 89.375 C-14.62136719 89.4059375 -15.36773437 89.436875 -16.13671875 89.46875 C-20.53473188 89.55643831 -20.53473188 89.55643831 -24 92 C-23.83582968 95.56592619 -23.83582968 95.56592619 -23 99 C-19.95786733 100.52106634 -16.71952428 100.37429338 -13.375 100.5625 C-12.31539063 100.62727539 -12.31539063 100.62727539 -11.234375 100.69335938 C-9.48981463 100.79944751 -7.74493303 100.90022889 -6 101 C-5.78085937 101.82242188 -5.56171875 102.64484375 -5.3359375 103.4921875 C-3.16983645 111.11756762 -0.51793985 117.48465516 4 124 C4.721875 125.051875 5.44375 126.10375 6.1875 127.1875 C14.18638068 135.18638068 24.14136999 139.52347035 35 142 C35.07347656 143.58941406 35.07347656 143.58941406 35.1484375 145.2109375 C35.22346709 146.59898497 35.29901485 147.98700451 35.375 149.375 C35.4059375 150.07367188 35.436875 150.77234375 35.46875 151.4921875 C35.59499498 155.70185827 35.59499498 155.70185827 38 159 C41.5 159.41666667 41.5 159.41666667 45 159 C47.10827055 155.83759418 47.33817465 154.49342531 47.625 150.8125 C47.69976562 149.91144531 47.77453125 149.01039063 47.8515625 148.08203125 C47.92503906 147.05142578 47.92503906 147.05142578 48 146 C51.1735417 147.40733556 53.31952598 149.10045105 55.8125 151.5 C66.54023954 161.17600037 79.00415669 167.88631813 92 174 C90.63649571 177.64475185 88.998536 180.91244487 87 184.25 C86.484375 185.12140625 85.96875 185.9928125 85.4375 186.890625 C84 189 84 189 82 190 C74.75622132 190.08084574 67.57948074 188.10504641 60.59765625 186.37231445 C50.09753535 183.86566344 44.08559139 185.39084078 34.4375 190 C21.39256111 196.20788089 21.39256111 196.20788089 16 195 C13.45668409 193.15796187 11.51980736 190.95353497 9.5 188.5625 C8.93321533 187.92594482 8.36643066 187.28938965 7.7824707 186.63354492 C4.18487765 182.54938581 0.83127957 178.33360473 -2.14453125 173.76953125 C-8.20446453 167.99026856 -19.06796142 167.41525013 -26.95117188 165.89453125 C-27.94310547 165.69214844 -28.93503906 165.48976563 -29.95703125 165.28125 C-30.85397705 165.10658203 -31.75092285 164.93191406 -32.67504883 164.75195312 C-35.37219558 163.87962172 -36.4348472 163.37117836 -38 161 C-38.45727539 157.89648438 -38.45727539 157.89648438 -38.59765625 154.09375 C-38.67710605 152.6952015 -38.75855403 151.29676536 -38.84179688 149.8984375 C-38.95847124 147.7110977 -39.06169344 145.52636946 -39.12866211 143.33691406 C-39.46361467 133.44397184 -41.05986257 127.38441637 -48.52075195 120.25683594 C-49.33890381 119.51208008 -50.15705566 118.76732422 -51 118 C-51.99648728 116.87442333 -52.97314919 115.73024162 -53.91015625 114.5546875 C-57.30492659 110.145051 -57.30492659 110.145051 -61 106 C-61.43994029 101.23722331 -60.68746977 98.84364743 -57.9375 94.98046875 C-56.98822632 93.58260132 -56.98822632 93.58260132 -56.01977539 92.15649414 C-55.35324951 91.17672607 -54.68672363 90.19695801 -54 89.1875 C-47.3588504 78.92316465 -45.06393486 72.11643416 -47 60 C-47.60191935 55.56859199 -48.16433108 51.16370091 -48.25 46.6875 C-48.28867187 45.45580078 -48.28867187 45.45580078 -48.328125 44.19921875 C-47.90678396 41.37523057 -47.21080276 40.78283949 -45 39 C-42.32714844 37.95458984 -42.32714844 37.95458984 -39.109375 36.9609375 C-21.13620297 30.80439491 -13.06233223 24.5056564 -4.4921875 7.2421875 C-4.05245605 6.2816748 -3.61272461 5.32116211 -3.15966797 4.33154297 C-2 2 -2 2 0 0 Z " fill="#E9552D" transform="translate(353,317)"/>
<path d="M0 0 C1.67578125 1.04296875 1.67578125 1.04296875 3 3 C3.2172101 5.64996326 3.28351554 8.05076558 3.1875 10.6875 C3.16719727 11.7403418 3.16719727 11.7403418 3.14648438 12.81445312 C3.11120182 14.54329829 3.05739583 16.27174765 3 18 C3.58265625 18.07476562 4.1653125 18.14953125 4.765625 18.2265625 C17.33426575 20.2422879 28.3392589 26.44131062 36.00390625 36.67578125 C40.77451211 43.87650784 44.21099946 50.2000813 44 59 C45.03640625 58.95359375 46.0728125 58.9071875 47.140625 58.859375 C48.51038779 58.82184725 49.88018182 58.78544816 51.25 58.75 C52.27287109 58.69972656 52.27287109 58.69972656 53.31640625 58.6484375 C56.80196601 58.58075673 58.63837348 58.72590092 61.453125 60.859375 C63 63 63 63 63.5 65.5 C62.82005139 68.89974307 61.75903126 69.90875975 59 72 C56.26317029 72.2911521 53.96059961 72.38322418 51.25 72.25 C50.55261719 72.23195313 49.85523438 72.21390625 49.13671875 72.1953125 C47.42388461 72.14838554 45.71176176 72.07664605 44 72 C43.9175 73.11375 43.835 74.2275 43.75 75.375 C42.19704064 87.1360789 35.71982942 96.2915178 26.75 103.8125 C19.58754646 109.05422638 11.7766603 111.97131413 3 113 C3.02320313 114.13179688 3.04640625 115.26359375 3.0703125 116.4296875 C3.08906901 117.91145175 3.10726934 119.39322312 3.125 120.875 C3.14175781 121.62136719 3.15851563 122.36773437 3.17578125 123.13671875 C3.1933959 125.09194461 3.10320189 127.04742021 3 129 C1 131 1 131 -2.4375 131.3125 C-6 131 -6 131 -7.7109375 129.9609375 C-9.70399772 126.92907014 -9.31479784 123.80829463 -9.1875 120.3125 C-9.16719727 119.2596582 -9.16719727 119.2596582 -9.14648438 118.18554688 C-9.11120182 116.45670171 -9.05739583 114.72825235 -9 113 C-9.66644531 112.92523438 -10.33289063 112.85046875 -11.01953125 112.7734375 C-23.01910765 111.06160982 -33.51922238 105.19913618 -40.90625 95.49609375 C-45.64638297 88.43610756 -50 80.66517491 -50 72 C-51.03640625 72.04640625 -52.0728125 72.0928125 -53.140625 72.140625 C-54.51038779 72.17815275 -55.88018182 72.21455184 -57.25 72.25 C-57.93191406 72.28351563 -58.61382812 72.31703125 -59.31640625 72.3515625 C-62.80034423 72.41921178 -64.64013534 72.27175789 -67.45703125 70.14453125 C-69 68 -69 68 -69.4375 65.4375 C-69 63 -69 63 -67.984375 61.359375 C-64.84125032 59.20621085 -61.4775889 59.68766291 -57.8125 59.8125 C-56.68811523 59.83280273 -56.68811523 59.83280273 -55.54101562 59.85351562 C-53.69370233 59.88881461 -51.84675934 59.94262083 -50 60 C-49.97873047 59.09121094 -49.97873047 59.09121094 -49.95703125 58.1640625 C-49.34873991 47.47786332 -44.35153521 38.66936474 -37 31 C-28.5505988 23.79240473 -20.1551935 18.8112868 -9 18 C-9.05220703 16.42798828 -9.05220703 16.42798828 -9.10546875 14.82421875 C-9.13360937 13.44532853 -9.16090924 12.06642098 -9.1875 10.6875 C-9.21263672 9.99720703 -9.23777344 9.30691406 -9.26367188 8.59570312 C-9.33753944 3.49884147 -9.33753944 3.49884147 -7.67578125 1.04296875 C-5.0446616 -0.59458124 -3.01736078 -0.3771701 0 0 Z " fill="#FEF7BE" transform="translate(397,346)"/>
<path d="M0 0 C1.15096 -0.01214013 2.30191999 -0.02428027 3.48775756 -0.03678828 C4.75805537 -0.03487096 6.02835317 -0.03295363 7.33714485 -0.0309782 C8.6957863 -0.03944337 10.05442025 -0.04919503 11.4130441 -0.06012648 C15.15511646 -0.08631302 18.89702568 -0.09358446 22.63917875 -0.09771073 C26.67218453 -0.10531007 30.7050922 -0.1299822 34.73803902 -0.15219402 C44.48403809 -0.20199111 54.23002314 -0.22305089 63.97612303 -0.24171284 C68.56691972 -0.25124994 73.15770639 -0.26419764 77.7484951 -0.27694035 C93.01290919 -0.31834874 108.27731232 -0.35343536 123.54177856 -0.36743927 C124.51918222 -0.36834953 125.49658587 -0.36925979 126.50360782 -0.37019764 C127.48335033 -0.37110793 128.46309284 -0.37201822 129.47252452 -0.3729561 C131.45784435 -0.37481155 133.44316416 -0.37667893 135.42848396 -0.37855816 C136.41327091 -0.37948476 137.39805786 -0.38041136 138.41268684 -0.38136604 C154.35363245 -0.39754864 170.29408478 -0.45775443 186.23483013 -0.53685788 C202.60549344 -0.61743495 218.97590832 -0.66029688 235.34677231 -0.66581935 C244.53652721 -0.66981345 253.72561086 -0.68997288 262.91517448 -0.75191975 C270.74470088 -0.80453872 278.57336691 -0.82266169 286.40304248 -0.79647676 C290.3951072 -0.78415128 294.38542452 -0.78769163 298.37726212 -0.8353529 C326.05821242 -1.14758573 326.05821242 -1.14758573 333.75639534 5.2754488 C336.41353226 7.94560432 336.41353226 7.94560432 338.4978199 10.39707661 C339.70595356 11.45983714 340.92838889 12.50691792 342.17360115 13.52598286 C343.04371834 14.32906879 343.91383553 15.13215473 344.8103199 15.95957661 C345.71395271 16.78586567 346.61758553 17.61215473 347.54860115 18.46348286 C348.19184334 19.10156879 348.83508553 19.73965473 349.4978199 20.39707661 C349.4978199 20.72707661 349.4978199 21.05707661 349.4978199 21.39707661 C231.3578199 21.39707661 113.2178199 21.39707661 -8.5021801 21.39707661 C-8.5021801 15.45707661 -8.5021801 9.51707661 -8.5021801 3.39707661 C-5.06035507 -0.04474843 -4.60731504 0.01977966 0 0 Z " fill="#DDF3F7" transform="translate(82.5021800994873,48.60292339324951)"/>
<path d="M0 0 C9.37431925 4.7208802 17.44881788 13.03207791 21 23 C22.55315659 28.46735114 23.29781878 33.44004526 23.29052734 39.13745117 C23.29724457 39.90777679 23.30396179 40.67810242 23.31088257 41.47177124 C23.32973788 43.99557106 23.33378076 46.51910306 23.3359375 49.04296875 C23.34237534 50.81643274 23.34910442 52.5898957 23.35610962 54.36335754 C23.3680522 58.074376 23.37179369 61.78530159 23.37060547 65.49633789 C23.37040275 70.21898242 23.39767015 74.94102207 23.43214989 79.66352367 C23.45454497 83.3261633 23.45843913 86.98866042 23.45738602 90.65136147 C23.45972439 92.39064932 23.46844671 94.12994218 23.48405075 95.86916161 C23.61650681 112.16065067 21.11053003 125.42793519 9.6875 137.75 C5.92775195 141.30179739 1.9012684 144.24890227 -3 146 C-11.00326316 145.16632675 -18.57316953 138.06918479 -23.5 132.0703125 C-29.37238594 123.96519649 -31.29773091 115.25108683 -31.30639648 105.38769531 C-31.31472 104.56699554 -31.32304352 103.74629578 -31.33161926 102.90072632 C-31.35555068 100.20980976 -31.3644709 97.51913642 -31.37109375 94.828125 C-31.38007337 92.94016453 -31.38919544 91.05220473 -31.39845276 89.16424561 C-31.41489991 85.21364622 -31.42263497 81.26313115 -31.42553711 77.3125 C-31.43091431 72.27802349 -31.4685856 67.24435179 -31.51428127 62.21010208 C-31.54418841 58.31159653 -31.55126363 54.41328156 -31.55226326 50.51467133 C-31.55643901 48.66010607 -31.56876551 46.80553884 -31.58978081 44.95108795 C-31.74477725 30.0908132 -29.75081528 18.17111464 -19 7 C-12.96377792 1.7437392 -8.19902502 -2.15056394 0 0 Z " fill="#3D4EC5" transform="translate(203,332)"/>
<path d="M0 0 C9.37431925 4.7208802 17.44881788 13.03207791 21 23 C22.55315659 28.46735114 23.29781878 33.44004526 23.29052734 39.13745117 C23.29724457 39.90777679 23.30396179 40.67810242 23.31088257 41.47177124 C23.32973788 43.99557106 23.33378076 46.51910306 23.3359375 49.04296875 C23.34237534 50.81643274 23.34910442 52.5898957 23.35610962 54.36335754 C23.3680522 58.074376 23.37179369 61.78530159 23.37060547 65.49633789 C23.37040275 70.21898242 23.39767015 74.94102207 23.43214989 79.66352367 C23.45454497 83.3261633 23.45843913 86.98866042 23.45738602 90.65136147 C23.45972439 92.39064932 23.46844671 94.12994218 23.48405075 95.86916161 C23.61650681 112.16065067 21.11053003 125.42793519 9.6875 137.75 C5.92775195 141.30179739 1.9012684 144.24890227 -3 146 C-11.00326316 145.16632675 -18.57316953 138.06918479 -23.5 132.0703125 C-29.37238594 123.96519649 -31.29773091 115.25108683 -31.30639648 105.38769531 C-31.31472 104.56699554 -31.32304352 103.74629578 -31.33161926 102.90072632 C-31.35555068 100.20980976 -31.3644709 97.51913642 -31.37109375 94.828125 C-31.38007337 92.94016453 -31.38919544 91.05220473 -31.39845276 89.16424561 C-31.41489991 85.21364622 -31.42263497 81.26313115 -31.42553711 77.3125 C-31.43091431 72.27802349 -31.4685856 67.24435179 -31.51428127 62.21010208 C-31.54418841 58.31159653 -31.55126363 54.41328156 -31.55226326 50.51467133 C-31.55643901 48.66010607 -31.56876551 46.80553884 -31.58978081 44.95108795 C-31.74477725 30.0908132 -29.75081528 18.17111464 -19 7 C-12.96377792 1.7437392 -8.19902502 -2.15056394 0 0 Z " fill="#3543AD" transform="translate(121,166)"/>
<path d="M0 0 C1.262677 -0.00671722 2.525354 -0.01343445 3.82629395 -0.02035522 C7.2748076 -0.03794796 10.72322186 -0.04270775 14.17177606 -0.0439868 C16.33093489 -0.04541282 18.4900688 -0.04969093 20.64922142 -0.05498123 C28.1950375 -0.0734595 35.74078314 -0.08165464 43.28662109 -0.08007812 C50.29911649 -0.07887743 57.31130376 -0.09997108 64.32372123 -0.13156545 C70.36219985 -0.15779357 76.40057823 -0.16844269 82.43911332 -0.16716731 C86.03772378 -0.16665957 89.63606016 -0.17223733 93.23461342 -0.19352341 C97.25297433 -0.21664598 101.27065298 -0.2073452 105.2890625 -0.1953125 C106.46705917 -0.20655151 107.64505585 -0.21779053 108.85874939 -0.22937012 C118.50396605 -0.15620381 126.69495938 1.91129873 133.86206055 8.65380859 C137.02714186 12.16219238 139.21546807 15.36109936 139.52612305 20.22802734 C136.91560773 26.96040896 131.62523562 31.51037087 125.6237793 35.28271484 C116.28180171 39.4027665 106.05656916 38.87302169 96.05834961 38.99072266 C93.99832012 39.02387554 91.93852237 39.07850606 89.87963867 39.15478516 C71.79890771 39.81909316 71.79890771 39.81909316 66.69702148 36.01123047 C64.24103522 33.55956965 62.21467373 31.20297923 60.33862305 28.29052734 C62.473024 23.69089931 65.71340307 20.98690193 69.44018555 17.60693359 C71.5488538 15.43744693 71.5488538 15.43744693 71.73706055 12.63037109 C71.5392122 10.10553486 71.5392122 10.10553486 69.33862305 8.29052734 C65.61970731 8.33548833 64.28333685 9.33835251 61.4440918 11.79443359 C60.46100552 12.80391144 59.48852447 13.82381033 58.52612305 14.85302734 C58.0240332 15.37316406 57.52194336 15.89330078 57.00463867 16.42919922 C55.77333177 17.70741305 54.55468234 18.99779881 53.33862305 20.29052734 C49.77461461 17.31700551 46.37995475 14.37337699 43.27612305 10.91552734 C40.56917513 7.98591681 40.56917513 7.98591681 36.96362305 7.91552734 C36.09737305 8.03927734 35.23112305 8.16302734 34.33862305 8.29052734 C33.83821464 12.84538115 33.87628645 14.69684512 36.74487305 18.38037109 C37.75873082 19.34814442 38.79069635 20.29725216 39.83862305 21.22802734 C40.36327148 21.72109375 40.88791992 22.21416016 41.4284668 22.72216797 C42.7164967 23.92823233 44.02556567 25.11175993 45.33862305 26.29052734 C43.07432213 31.31279122 39.811449 35.07738722 35.33862305 38.29052734 C31.77619292 39.33266123 28.46570046 39.27955942 24.77612305 39.14208984 C23.78539795 39.13551361 22.79467285 39.12893738 21.77392578 39.12216187 C18.62700439 39.09083519 15.48443161 39.0028841 12.33862305 38.91552734 C10.22667886 38.89252212 8.11469423 38.87295844 6.00268555 38.85693359 C3.9687882 38.83007798 1.9349277 38.80022993 -0.09887695 38.76708984 C-1.50858765 38.74492905 -1.50858765 38.74492905 -2.94677734 38.72232056 C-13.02071526 38.43322676 -21.18402592 36.41893516 -28.68481445 29.39599609 C-31.36843413 26.53164285 -33.36863836 23.9457042 -34.97387695 20.35302734 C-34.3776886 14.51038146 -30.89156314 10.19001684 -26.5012207 6.45068359 C-17.90131172 0.41747129 -10.26250763 -0.00785566 0 0 Z " fill="#3D4DC5" transform="translate(309.661376953125,169.70947265625)"/>
<path d="M0 0 C24.09 0 48.18 0 73 0 C73 23.76 73 47.52 73 72 C48.91 72 24.82 72 0 72 C0 48.24 0 24.48 0 0 Z " fill="#A4DFEB" transform="translate(80,326)"/>
<path d="M0 0 C23.76 0 47.52 0 72 0 C72 23.76 72 47.52 72 72 C48.24 72 24.48 72 0 72 C0 48.24 0 24.48 0 0 Z " fill="#A4DFEB" transform="translate(326,244)"/>
<path d="M0 0 C23.76 0 47.52 0 72 0 C72 23.76 72 47.52 72 72 C48.24 72 24.48 72 0 72 C0 48.24 0 24.48 0 0 Z " fill="#A4DFEB" transform="translate(163,244)"/>
<path d="M0 0 C23.76 0 47.52 0 72 0 C72 23.76 72 47.52 72 72 C48.24 72 24.48 72 0 72 C0 48.24 0 24.48 0 0 Z " fill="#A4DFEB" transform="translate(163,162)"/>
<path d="M0 0 C23.76 0 47.52 0 72 0 C72 23.76 72 47.52 72 72 C48.24 72 24.48 72 0 72 C0 48.24 0 24.48 0 0 Z " fill="#A5DFEB" transform="translate(81,80)"/>
<path d="M0 0 C23.76 0 47.52 0 72 0 C72 23.76 72 47.52 72 72 C48.24 72 24.48 72 0 72 C0 48.24 0 24.48 0 0 Z " fill="#A5DFEB" transform="translate(326,80)"/>
<path d="M0 0 C23.76 0 47.52 0 72 0 C72 23.76 72 47.52 72 72 C57.76875 72.12375 57.76875 72.12375 43.25 72.25 C38.7626123 72.30462402 38.7626123 72.30462402 34.18457031 72.36035156 C31.81576252 72.37203301 29.44694671 72.38222611 27.078125 72.390625 C25.84626465 72.41108887 24.6144043 72.43155273 23.34521484 72.45263672 C21.57960205 72.45336182 21.57960205 72.45336182 19.77832031 72.45410156 C18.75683899 72.46298401 17.73535767 72.47186646 16.68292236 72.48101807 C13.30659377 71.87567999 12.31315504 70.43541499 10 68 C6.37542227 68.19076725 3.43470709 68.85509764 0 70 C0 46.9 0 23.8 0 0 Z " fill="#A5DFEB" transform="translate(408,244)"/>
<path d="M0 0 C23.43 0 46.86 0 71 0 C71 23.76 71 47.52 71 72 C47.57 72 24.14 72 0 72 C0 48.24 0 24.48 0 0 Z " fill="#A5DFEB" transform="translate(245,244)"/>
<path d="M0 0 C23.43 0 46.86 0 71 0 C71 23.76 71 47.52 71 72 C47.57 72 24.14 72 0 72 C0 48.24 0 24.48 0 0 Z " fill="#A5DFEB" transform="translate(245,80)"/>
<path d="M0 0 C23.43 0 46.86 0 71 0 C71 8.91 71 17.82 71 27 C66.545 29.475 66.545 29.475 62 32 C60.77890666 33.00149445 60.77890666 33.00149445 60.8671875 35.00390625 C60.87105469 36.27041016 60.87105469 36.27041016 60.875 37.5625 C60.87242187 38.38878906 60.86984375 39.21507812 60.8671875 40.06640625 C61.00133828 43.02956032 61.3776663 45.92213474 61.76416016 48.86108398 C62.16415771 52.48880507 62.22409004 56.10317277 62.25 59.75 C62.270625 60.49121094 62.29125 61.23242188 62.3125 61.99609375 C62.33451263 65.06135216 62.27986047 67.46693735 60.83927917 70.21087646 C58.29369696 72.68704274 56.75764074 72.4840737 53.2434082 72.45410156 C51.44716003 72.45337646 51.44716003 72.45337646 49.61462402 72.45263672 C48.35605591 72.43217285 47.09748779 72.41170898 45.80078125 72.390625 C44.64396851 72.38659668 43.48715576 72.38256836 42.29528809 72.37841797 C37.96753108 72.35746511 33.63999987 72.30161982 29.3125 72.25 C19.639375 72.1675 9.96625 72.085 0 72 C0 48.24 0 24.48 0 0 Z " fill="#A5DFEB" transform="translate(245,326)"/>
<path d="M0 0 C17.82 0 35.64 0 54 0 C52.35 2.97 50.7 5.94 49 9 C48.34382509 12.8406881 48.43963457 14.19058327 50.65234375 17.38671875 C51.40644531 18.14597656 52.16054688 18.90523438 52.9375 19.6875 C57.26365541 24.19847534 61.23285998 28.88348047 65.15234375 33.75 C66.95605161 36.02119749 66.95605161 36.02119749 69 38 C69.37246491 40.39812831 69.63217194 42.7113687 69.81640625 45.125 C69.87779282 45.8277002 69.93917938 46.53040039 70.00242615 47.25439453 C70.19762953 49.50229881 70.38076264 51.75097016 70.5625 54 C70.74950264 56.24883277 70.93908423 58.4973827 71.13328552 60.74560547 C71.25365306 62.1452831 71.36956047 63.54535275 71.48060608 64.94580078 C71.76205446 68.59391849 71.76205446 68.59391849 73 72 C48.91 72 24.82 72 0 72 C0 48.24 0 24.48 0 0 Z " fill="#A4DFEB" transform="translate(244,408)"/>
<path d="M0 0 C23.76 0 47.52 0 72 0 C72 23.76 72 47.52 72 72 C47.92620641 73.14637112 47.92620641 73.14637112 38.79248047 66.33007812 C36.81652471 64.86385544 34.79310514 63.48616477 32.75390625 62.109375 C20.69058725 53.88903729 9.87939634 44.79145671 -1 35 C-0.67 23.45 -0.34 11.9 0 0 Z " fill="#A5DFEB" transform="translate(81,408)"/>
<path d="M0 0 C12.28033832 13.03549822 27.26938757 30.80816271 33 48 C32.67 54.27 32.34 60.54 32 67 C8.24 67 -15.52 67 -40 67 C-40 43.24 -40 19.48 -40 -5 C-7 -6 -7 -6 0 0 Z " fill="#A5DFEB" transform="translate(448,85)"/>
<path d="M0 0 C8.51259923 5.30768538 15.230976 12.90574638 18.19848633 22.6003418 C19.26855349 27.76704675 18.9398965 33.17422933 18.98046875 38.4296875 C19.00947266 39.65494141 19.03847656 40.88019531 19.06835938 42.14257812 C19.15202091 54.22201605 16.63471881 62.86678479 8.17578125 71.6328125 C3.17959209 76.08424583 -2.50384403 80.22873576 -9.33203125 80.8671875 C-17.3860259 78.26719665 -25.58127922 71.21677481 -30.0390625 64.16796875 C-34.26689705 55.8219553 -34.54569514 49.02606351 -34.58203125 39.7421875 C-34.60265625 38.44796875 -34.62328125 37.15375 -34.64453125 35.8203125 C-34.6908232 24.45563839 -33.04905244 16.38192324 -25.33203125 7.8671875 C-17.83258181 0.39767598 -10.52666648 -5.11345608 0 0 Z " fill="#3343AE" transform="translate(206.33203125,77.1328125)"/>
<path d="M0 0 C9.52951447 4.79903607 17.17472305 13.02774622 21 23 C22.40242023 27.55786576 22.09269809 32.27239722 22 37 C20 34 20 34 18.80859375 31.73046875 C15.41989411 25.44544464 11.79118317 20.72870964 5 18 C0.0695962 18.48337292 -3.8146417 21.2635694 -7 25 C-13.03572313 34.04015878 -13.85891549 42.44377998 -13.69140625 52.984375 C-13.68781865 54.49505253 -13.68647394 56.00573686 -13.6872406 57.51641846 C-13.68258422 60.65998121 -13.65801075 63.80250041 -13.61743164 66.94580078 C-13.56628843 70.95589802 -13.55499592 74.96486108 -13.55726719 78.97524643 C-13.55644828 82.08616774 -13.53994705 85.19684586 -13.51826286 88.30768585 C-13.50878517 89.78591327 -13.50282012 91.2641679 -13.50058174 92.74242401 C-13.46743924 103.17919503 -12.79652773 111.55026283 -6 120 C-2.61940018 123.22134244 0.26211238 125.81897004 5 126.3125 C12.62517 122.97648812 16.87317403 117.5074782 20 110 C20.65825023 108.66249155 21.32275403 107.32799101 22 106 C22.87352577 115.86113538 20.85271781 123.71648563 14.98046875 131.76953125 C10.08620699 137.48664613 2.99980603 145.26039529 -5 146 C-15.85455496 141.87759628 -22.3210885 134.90013594 -27.73828125 124.94140625 C-30.52428013 118.44649244 -31.30026823 112.36304426 -31.30639648 105.38769531 C-31.31472 104.56699554 -31.32304352 103.74629578 -31.33161926 102.90072632 C-31.35555068 100.20980976 -31.3644709 97.51913642 -31.37109375 94.828125 C-31.38007337 92.94016453 -31.38919544 91.05220473 -31.39845276 89.16424561 C-31.41489991 85.21364622 -31.42263497 81.26313115 -31.42553711 77.3125 C-31.43091431 72.27802349 -31.4685856 67.24435179 -31.51428127 62.21010208 C-31.54418841 58.31159653 -31.55126363 54.41328156 -31.55226326 50.51467133 C-31.55643901 48.66010607 -31.56876551 46.80553884 -31.58978081 44.95108795 C-31.74477725 30.0908132 -29.75081528 18.17111464 -19 7 C-12.96377792 1.7437392 -8.19902502 -2.15056394 0 0 Z " fill="#3343AE" transform="translate(203,332)"/>
<path d="M0 0 C3.63095446 4.84127262 5.29193599 9.590538 7.3125 15.25 C7.70840332 16.35811035 8.10430664 17.4662207 8.51220703 18.60791016 C14.57642629 35.98806595 18.65781313 53.75145867 21 72 C21.13099342 73.00080849 21.13099342 73.00080849 21.26463318 74.02183533 C21.96087491 79.73820476 22.17456164 85.37742632 22.203125 91.1328125 C22.21018463 92.07916061 22.21724426 93.02550873 22.22451782 94.00053406 C22.45241099 133.51652112 22.45241099 133.51652112 19 150 C18.80132324 150.97485352 18.60264648 151.94970703 18.39794922 152.95410156 C14.46480669 171.75658515 9.14429483 190.5594744 1 208 C0.67 208 0.34 208 0 208 C0 139.36 0 70.72 0 0 Z " fill="#DAF2F7" transform="translate(490,152)"/>
<path d="M0 0 C0.33 0 0.66 0 1 0 C1 68.64 1 137.28 1 208 C-9.60215899 193.86378801 -13.48123195 172.09464724 -17 155 C-17.21027832 153.99888184 -17.42055664 152.99776367 -17.63720703 151.96630859 C-23.57772866 122.30132843 -24.21390238 87.66817363 -18 58 C-17.80132324 57.02514648 -17.60264648 56.05029297 -17.39794922 55.04589844 C-13.46480669 36.24341485 -8.14429483 17.4405256 0 0 Z " fill="#FFB52C" transform="translate(21,152)"/>
<path d="M0 0 C65.67 0 131.34 0 199 0 C199.99 1.98 199.99 1.98 201 4 C174.14431095 14.48178164 145.83937374 22.06472384 116.83203125 22.203125 C115.39787117 22.21167511 115.39787117 22.21167511 113.93473816 22.22039795 C111.91524339 22.2297971 109.89573363 22.23636156 107.8762207 22.24023438 C104.86575499 22.24983025 101.85600598 22.28085684 98.84570312 22.3125 C85.32947482 22.38636788 72.32593851 21.23780336 59 19 C57.86361084 18.81179688 56.72722168 18.62359375 55.55639648 18.4296875 C52.95997596 17.96385577 50.38799506 17.44444715 47.8125 16.875 C46.89452637 16.67398682 45.97655273 16.47297363 45.03076172 16.26586914 C29.6774031 12.71775947 14.26501165 7.72597811 0 1 C0 0.67 0 0.34 0 0 Z " fill="#DEF4F8" transform="translate(152,490)"/>
<path d="M0 0 C0.04898437 0.98742187 0.09796875 1.97484375 0.1484375 2.9921875 C0.22320312 4.27351563 0.29796875 5.55484375 0.375 6.875 C0.44460938 8.15117187 0.51421875 9.42734375 0.5859375 10.7421875 C0.67241106 14.08061699 0.67241106 14.08061699 3 16 C6.56592619 15.83582968 6.56592619 15.83582968 10 15 C11.41634833 12.16730334 11.3463005 9.52533562 11.5625 6.375 C11.64628906 5.18648438 11.73007812 3.99796875 11.81640625 2.7734375 C11.90728516 1.40058594 11.90728516 1.40058594 12 0 C20.56084494 0.54643691 27.50440853 4.63506907 33.359375 10.83203125 C36.9994362 15.64211212 41 21.85720524 41 28 C40.01257813 28.04898437 39.02515625 28.09796875 38.0078125 28.1484375 C36.72648437 28.22320312 35.44515625 28.29796875 34.125 28.375 C32.84882813 28.44460938 31.57265625 28.51421875 30.2578125 28.5859375 C26.91938301 28.67241106 26.91938301 28.67241106 25 31 C24.53719067 35.03829135 24.53719067 35.03829135 26.1015625 38.6484375 C28.88299359 40.6286333 31.31272856 40.52043211 34.6875 40.6875 C36.45673828 40.78611328 36.45673828 40.78611328 38.26171875 40.88671875 C39.16535156 40.92410156 40.06898438 40.96148437 41 41 C39.39359316 50.52007422 34.48385775 57.9990548 27 64 C22.17748533 67.17512894 17.72215609 68.52315366 12 69 C11.94392578 67.51886719 11.94392578 67.51886719 11.88671875 66.0078125 C11.82097656 64.72648437 11.75523437 63.44515625 11.6875 62.125 C11.60048828 60.21074219 11.60048828 60.21074219 11.51171875 58.2578125 C11.25841797 56.64519531 11.25841797 56.64519531 11 55 C8.16426737 52.66224971 8.16426737 52.66224971 4.875 53.25 C3.92625 53.4975 2.9775 53.745 2 54 C0.58365167 56.83269666 0.6536995 59.47466438 0.4375 62.625 C0.35371094 63.81351562 0.26992188 65.00203125 0.18359375 66.2265625 C0.09271484 67.59941406 0.09271484 67.59941406 0 69 C-8.65817992 68.44735022 -15.53078999 64.29663715 -21.4296875 58.02734375 C-25.36984958 52.94041808 -27.94021158 47.33618186 -29 41 C-28.01257813 40.95101562 -27.02515625 40.90203125 -26.0078125 40.8515625 C-24.72648437 40.77679688 -23.44515625 40.70203125 -22.125 40.625 C-20.21074219 40.52058594 -20.21074219 40.52058594 -18.2578125 40.4140625 C-14.91938301 40.32758894 -14.91938301 40.32758894 -13 38 C-12.74996036 34.45821402 -12.74996036 34.45821402 -13 31 C-14.99616554 29.00383446 -18.81701963 29.59016573 -21.5625 29.4375 C-22.62887695 29.37272461 -22.62887695 29.37272461 -23.71679688 29.30664062 C-25.47761912 29.20028223 -27.2387832 29.09961154 -29 29 C-27.39565283 18.89261282 -22.98377048 12.00446235 -15.08203125 5.5078125 C-10.16063834 1.94372682 -6.16356251 -0.26612964 0 0 Z " fill="#F76A38" transform="translate(388,377)"/>
<path d="M0 0 C3.69790046 1.23263349 3.9354846 2.20052451 5.6875 5.5625 C6.12449219 6.38878906 6.56148437 7.21507812 7.01171875 8.06640625 C7.50091797 9.02353516 7.50091797 9.02353516 8 10 C8.66 9.01 9.32 8.02 10 7 C10 33.73 10 60.46 10 88 C9.01 87.01 9.01 87.01 8 86 C6.35 88.97 4.7 91.94 3 95 C-1.33333333 90.66666667 -5.66666667 86.33333333 -10 82 C-8.08237357 77.35344364 -4.55504765 74.63273249 -0.8984375 71.31640625 C1.21023075 69.14691959 1.21023075 69.14691959 1.3984375 66.33984375 C1.20058916 63.81500752 1.20058916 63.81500752 -1 62 C-4.71891574 62.04496098 -6.05528619 63.04782517 -8.89453125 65.50390625 C-9.87761752 66.5133841 -10.85009858 67.53328299 -11.8125 68.5625 C-12.31458984 69.08263672 -12.81667969 69.60277344 -13.33398438 70.13867188 C-14.56529127 71.4168857 -15.7839407 72.70727147 -17 74 C-18.1055189 73.06409496 -19.20935453 72.12620142 -20.3125 71.1875 C-20.92738281 70.66542969 -21.54226562 70.14335937 -22.17578125 69.60546875 C-22.77777344 69.07566406 -23.37976563 68.54585938 -24 68 C-24.51481934 67.6376123 -25.02963867 67.27522461 -25.56005859 66.90185547 C-27.8236567 63.91212518 -27.68389674 60.58705222 -27.86328125 56.96484375 C-27.90494919 56.17155167 -27.94661713 55.37825958 -27.98954773 54.56092834 C-28.06919718 52.87929912 -28.1400841 51.19723542 -28.20288086 49.51489258 C-28.31126916 46.96643971 -28.48972666 44.42900348 -28.66992188 41.88476562 C-29.30610543 29.18125369 -29.30610543 29.18125369 -25.74755859 24.58642578 C-23.2850869 22.12134691 -20.85238712 19.99427133 -18 18 C-14.42206606 21.00403431 -11.00347291 23.9587033 -7.875 27.4375 C-5.29170002 30.32622976 -5.29170002 30.32622976 -2.1875 29.9375 C-0.06383277 29.18762966 -0.06383277 29.18762966 1 28 C1.54543691 25.70582427 1.54543691 25.70582427 1 23 C-0.78663019 20.8508231 -2.46395503 19.06096153 -4.5 17.1875 C-5.02464844 16.68541016 -5.54929688 16.18332031 -6.08984375 15.66601562 C-7.38222532 14.43237867 -8.68969599 13.21458375 -10 12 C-8.52278578 8.54798361 -6.56205999 6.35038064 -3.875 3.75 C-3.15054688 3.04359375 -2.42609375 2.3371875 -1.6796875 1.609375 C-1.12539062 1.07828125 -0.57109375 0.5471875 0 0 Z " fill="#3F4FC4" transform="translate(134,190)"/>
<path d="M0 0 C23.76 0 47.52 0 72 0 C72 23.76 72 47.52 72 72 C69.03 72 66.06 72 63 72 C62.98541748 70.99211426 62.97083496 69.98422852 62.95581055 68.94580078 C62.89729495 65.16209613 62.82007193 61.37895394 62.73754883 57.59570312 C62.70454751 55.96656508 62.67644065 54.33731949 62.65356445 52.70800781 C62.44690995 38.3740995 61.18606695 25.64084845 50.8203125 14.69921875 C43.75946538 8.15265968 43.75946538 8.15265968 34.6875 5.9375 C24.77560248 8.79347047 18.62744381 15.68544216 13.61743164 24.40673828 C9.04174833 34.00502802 9.21962988 43.3438123 9.1875 53.75 C9.16430987 55.52607176 9.13893532 57.30211641 9.11132812 59.078125 C9.04905571 63.3855182 9.01626428 67.69219749 9 72 C6.03 72 3.06 72 0 72 C0 48.24 0 24.48 0 0 Z " fill="#A3DEEB" transform="translate(163,326)"/>
<path d="M0 0 C2.97 0 5.94 0 9 0 C9.01458252 1.03817871 9.02916504 2.07635742 9.04418945 3.14599609 C9.10268225 7.04150815 9.17990613 10.93647255 9.26245117 14.83154297 C9.29546296 16.50918613 9.32356676 18.18693402 9.34643555 19.86474609 C9.54714729 34.20495924 10.65476186 46.96364483 20.88671875 58.04296875 C24.99779205 61.83097145 29.55408338 65.43914105 35 67 C42.72625419 66.03421823 49.55808829 59.09162397 54.39453125 53.34765625 C60.10788513 44.99309255 62.08514371 36.00833495 62.31640625 26.07421875 C62.33718735 25.32662796 62.35796844 24.57903717 62.37937927 23.80879211 C62.44444189 21.43511604 62.5035571 19.06133513 62.5625 16.6875 C62.60572646 15.07225505 62.64934204 13.45702047 62.69335938 11.84179688 C62.80007851 7.89463701 62.90146619 3.94737233 63 0 C65.97 0 68.94 0 72 0 C72 23.76 72 47.52 72 72 C48.24 72 24.48 72 0 72 C0 48.24 0 24.48 0 0 Z " fill="#A3DEEB" transform="translate(81,244)"/>
<path d="M0 0 C23.76 0 47.52 0 72 0 C72 23.76 72 47.52 72 72 C48.24 72 24.48 72 0 72 C0 68.7 0 65.4 0 62 C0.98693848 61.9906543 1.97387695 61.98130859 2.99072266 61.97167969 C6.72243149 61.9312055 10.45336444 61.8653028 14.18457031 61.79248047 C15.78635541 61.76459826 17.38826974 61.74322448 18.99023438 61.72900391 C34.80596521 61.58035982 48.97872456 59.78723291 60.83984375 48.203125 C64.75500998 43.87633982 67.94879953 39.71362482 68.0625 33.6875 C65.49736318 24.78496634 59.42581745 18.18303122 51.54296875 13.55859375 C44.07129331 9.62672257 37.42840247 8.8574953 29.1015625 8.68359375 C28.26660248 8.66281265 27.43164246 8.64203156 26.57138062 8.62062073 C23.9226651 8.55560531 21.27385641 8.49646509 18.625 8.4375 C16.82160522 8.39426904 15.01821962 8.35065334 13.21484375 8.30664062 C8.80998961 8.19997361 4.4050424 8.09857305 0 8 C0 5.36 0 2.72 0 0 Z " fill="#A4DEEB" transform="translate(408,162)"/>
<path d="M0 0 C23.76 0 47.52 0 72 0 C72 23.76 72 47.52 72 72 C69.03 72 66.06 72 63 72 C62.98541748 70.93152832 62.97083496 69.86305664 62.95581055 68.76220703 C62.89733925 64.75488711 62.82011459 60.74810078 62.73754883 56.74121094 C62.70452714 55.0150628 62.67642625 53.28881259 62.65356445 51.5625 C62.45440171 36.91768189 61.43120101 23.89960107 50.8203125 12.69921875 C43.75946538 6.15265968 43.75946538 6.15265968 34.6875 3.9375 C24.76393315 6.79683282 18.68301386 13.68235976 13.61743164 22.37158203 C8.87502122 32.21748622 9.21875982 42.06103743 9.1875 52.75 C9.16431359 54.62242443 9.13893978 56.4948231 9.11132812 58.3671875 C9.04900934 62.9115547 9.01625404 67.45524417 9 72 C6.03 72 3.06 72 0 72 C0 48.24 0 24.48 0 0 Z " fill="#A3DEEB" transform="translate(81,162)"/>
<path d="M0 0 C2.97 0 5.94 0 9 0 C9.01458252 1.09876465 9.02916504 2.1975293 9.04418945 3.32958984 C9.10264043 7.44871805 9.17986581 11.56732604 9.26245117 15.68603516 C9.29548221 17.46068815 9.32358035 19.23544069 9.34643555 21.01025391 C9.54015681 35.65887892 10.41690872 48.70609371 20.88671875 60.04296875 C24.99779205 63.83097145 29.55408338 67.43914105 35 69 C42.72625419 68.03421823 49.55808829 61.09162397 54.39453125 55.34765625 C60.21988868 46.8293112 62.09446664 37.75132061 62.31640625 27.63671875 C62.33718735 26.84473587 62.35796844 26.05275299 62.37937927 25.23677063 C62.44447804 22.72043072 62.50357423 20.20399128 62.5625 17.6875 C62.605723 15.97590139 62.64933848 14.26431265 62.69335938 12.55273438 C62.80011847 8.36859016 62.90149635 4.18434638 63 0 C65.97 0 68.94 0 72 0 C72 23.76 72 47.52 72 72 C48.24 72 24.48 72 0 72 C0 48.24 0 24.48 0 0 Z " fill="#A3DEEB" transform="translate(163,408)"/>
<path d="M0 0 C23.43 0 46.86 0 71 0 C71 2.64 71 5.28 71 8 C69.26097412 8.01401855 69.26097412 8.01401855 67.48681641 8.02832031 C63.14399202 8.06849635 58.80185566 8.13432906 54.45947266 8.20751953 C52.58781846 8.23557016 50.71604931 8.25686302 48.84423828 8.27099609 C34.39810234 8.16203834 34.39810234 8.16203834 21 13 C20.10925781 13.45761719 19.21851563 13.91523438 18.30078125 14.38671875 C11.63308785 18.74888359 6.1229833 24.5621702 3 32 C3 39.4675562 6.94750589 44.60078607 11.75390625 49.953125 C20.51857696 58.37013654 31.55849975 61.05737988 43.36328125 61.31640625 C44.15526413 61.33718735 44.94724701 61.35796844 45.76322937 61.37937927 C48.27956928 61.44447804 50.79600872 61.50357423 53.3125 61.5625 C55.02409861 61.605723 56.73568735 61.64933848 58.44726562 61.69335938 C62.63140984 61.80011847 66.81565362 61.90149635 71 62 C71 65.3 71 68.6 71 72 C47.57 72 24.14 72 0 72 C0 48.24 0 24.48 0 0 Z " fill="#A4DEEB" transform="translate(245,162)"/>
<path d="M0 0 C3.82463145 2.29477887 6.96623676 4.73287035 10 8 C10.66 7.67 11.32 7.34 12 7 C12 16.24 12 25.48 12 35 C11.01 35 10.02 35 9 35 C7.31126121 36.64429829 5.64694485 38.31384218 4 40 C0.68914905 42.31759567 -1.97988712 43.5566052 -6 44 C-12.47523462 41.96637163 -17.26267639 38.60598542 -21 33 C-24.09410385 26.67918785 -23.79922123 19.83619589 -23 13 C-20.41897401 6.18685051 -15.45718165 2.08402705 -9 -1 C-5.12309564 -2.29230145 -3.74190277 -1.54078349 0 0 Z " fill="#3C4DC5" transform="translate(213,95)"/>
<path d="M0 0 C7.92 0 15.84 0 24 0 C24 23.76 24 47.52 24 72 C16.08 72 8.16 72 0 72 C1.98 69.69 3.96 67.38 6 65 C6.95886724 63.69668531 7.8881996 62.36943625 8.75 61 C9.13671875 60.401875 9.5234375 59.80375 9.921875 59.1875 C13.61008373 51.70417794 13.33389091 44.3305515 13.3125 36.125 C13.32861328 34.89652344 13.34472656 33.66804688 13.36132812 32.40234375 C13.3662669 23.18658416 12.62664699 15.42930423 6.5 8.1875 C5.61828125 7.12595703 5.61828125 7.12595703 4.71875 6.04296875 C4.1515625 5.36878906 3.584375 4.69460937 3 4 C2.01 2.68 1.02 1.36 0 0 Z " fill="#A0DCEA" transform="translate(211,80)"/>
<path d="M0 0 C7.59 0 15.18 0 23 0 C21.02 2.31 19.04 4.62 17 7 C16.04113276 8.30331469 15.1118004 9.63056375 14.25 11 C13.86328125 11.598125 13.4765625 12.19625 13.078125 12.8125 C9.33562713 20.40597394 9.63338971 27.98571744 9.625 36.3125 C9.60050781 37.58029297 9.57601562 38.84808594 9.55078125 40.15429688 C9.51775928 50.78186691 11.11987327 58.79523047 18.75 66.5625 C23 70.95645161 23 70.95645161 23 72 C15.41 72 7.82 72 0 72 C0 48.24 0 24.48 0 0 Z " fill="#A4DDEB" transform="translate(163,80)"/>
<path d="M0 0 C2.09187631 1.80957182 3.93657355 3.55633566 5.8125 5.5625 C6.31458984 6.08263672 6.81667969 6.60277344 7.33398438 7.13867188 C8.56529127 8.4168857 9.7839407 9.70727147 11 11 C12.04458319 10.12848385 13.08546407 9.25253033 14.125 8.375 C15.08599609 7.56482422 15.08599609 7.56482422 16.06640625 6.73828125 C17.88224732 5.10585847 19.4486734 3.39036196 21.0625 1.5625 C24 -1 24 -1 27.375 -0.875 C28.674375 -0.441875 28.674375 -0.441875 30 0 C30.83984375 3.12890625 30.83984375 3.12890625 31 7 C29.21115582 9.39420601 27.75939556 11.01687667 25.5625 12.9375 C24.76875977 13.67709961 24.76875977 13.67709961 23.95898438 14.43164062 C22.65668618 15.64007949 21.33054487 16.8227339 20 18 C21.91762643 22.64655636 25.44495235 25.36726751 29.1015625 28.68359375 C31 31 31 31 31.34765625 33.66796875 C31 36 31 36 29.8125 37.875 C28 39 28 39 25.75 38.91796875 C22.0030755 37.66721981 19.81949513 35.25222377 17.1875 32.4375 C16.68541016 31.91736328 16.18332031 31.39722656 15.66601562 30.86132812 C14.43470873 29.5831143 13.2160593 28.29272853 12 27 C10.95541681 27.87151615 9.91453593 28.74746967 8.875 29.625 C8.23433594 30.16511719 7.59367187 30.70523438 6.93359375 31.26171875 C5.11775268 32.89414153 3.5513266 34.60963804 1.9375 36.4375 C-1 39 -1 39 -4.375 38.875 C-5.674375 38.441875 -5.674375 38.441875 -7 38 C-7.83984375 34.87109375 -7.83984375 34.87109375 -8 31 C-6.21115582 28.60579399 -4.75939556 26.98312333 -2.5625 25.0625 C-2.03333984 24.56943359 -1.50417969 24.07636719 -0.95898438 23.56835938 C0.34331382 22.35992051 1.66945513 21.1772661 3 20 C1.48824158 16.29995039 -0.71937495 14.31081932 -3.6875 11.6875 C-7.86824958 7.63404888 -7.86824958 7.63404888 -8.4375 4.89453125 C-8.1875 3 -8.1875 3 -7 0 C-4.17076585 -1.41461708 -2.99715212 -0.99620035 0 0 Z " fill="#E6542F" transform="translate(105,182)"/>
<path d="M0 0 C2.09187631 1.80957182 3.93657355 3.55633566 5.8125 5.5625 C6.31458984 6.08263672 6.81667969 6.60277344 7.33398438 7.13867188 C8.56529127 8.4168857 9.7839407 9.70727147 11 11 C14.5873524 8.00700184 17.99758934 5.0401155 21.125 1.5625 C24 -1 24 -1 26.75 -1 C29 0 29 0 31 2 C31.46875 4.26171875 31.46875 4.26171875 31 7 C29.21336981 9.1491769 27.53604497 10.93903847 25.5 12.8125 C24.97535156 13.31458984 24.45070313 13.81667969 23.91015625 14.33398438 C22.61777468 15.56762133 21.31030401 16.78541625 20 18 C21.91762643 22.64655636 25.44495235 25.36726751 29.1015625 28.68359375 C31 31 31 31 31.34765625 33.66796875 C31 36 31 36 29.8125 37.875 C28 39 28 39 25.75 38.91796875 C22.0030755 37.66721981 19.81949513 35.25222377 17.1875 32.4375 C16.68541016 31.91736328 16.18332031 31.39722656 15.66601562 30.86132812 C14.43470873 29.5831143 13.2160593 28.29272853 12 27 C10.95541681 27.87151615 9.91453593 28.74746967 8.875 29.625 C8.23433594 30.16511719 7.59367187 30.70523438 6.93359375 31.26171875 C5.11775268 32.89414153 3.5513266 34.60963804 1.9375 36.4375 C-1 39 -1 39 -4.375 38.875 C-5.674375 38.441875 -5.674375 38.441875 -7 38 C-7.83984375 34.87109375 -7.83984375 34.87109375 -8 31 C-6.21115582 28.60579399 -4.75939556 26.98312333 -2.5625 25.0625 C-2.03333984 24.56943359 -1.50417969 24.07636719 -0.95898438 23.56835938 C0.34331382 22.35992051 1.66945513 21.1772661 3 20 C1.48824158 16.29995039 -0.71937495 14.31081932 -3.6875 11.6875 C-7.86824958 7.63404888 -7.86824958 7.63404888 -8.4375 4.89453125 C-8.1875 3 -8.1875 3 -7 0 C-4.17076585 -1.41461708 -2.99715212 -0.99620035 0 0 Z " fill="#E65430" transform="translate(351,178)"/>
<path d="M0 0 C3.7469245 1.25074894 5.93050487 3.66574498 8.5625 6.48046875 C9.06458984 7.00060547 9.56667969 7.52074219 10.08398438 8.05664062 C11.31529127 9.33485445 12.5339407 10.62524022 13.75 11.91796875 C17.3373524 8.92497059 20.74758934 5.95808425 23.875 2.48046875 C26.75 -0.08203125 26.75 -0.08203125 29.5 -0.08203125 C31.75 0.91796875 31.75 0.91796875 33.75 2.91796875 C34.21875 5.1796875 34.21875 5.1796875 33.75 7.91796875 C31.96336981 10.06714565 30.28604497 11.85700722 28.25 13.73046875 C27.72535156 14.23255859 27.20070312 14.73464844 26.66015625 15.25195312 C25.36777468 16.48559008 24.06030401 17.703385 22.75 18.91796875 C24.66762643 23.56452511 28.19495235 26.28523626 31.8515625 29.6015625 C33.75 31.91796875 33.75 31.91796875 34.09765625 34.5859375 C33.75 36.91796875 33.75 36.91796875 32.5625 38.79296875 C30.75 39.91796875 30.75 39.91796875 28.5 39.8359375 C24.7530755 38.58518856 22.56949513 36.17019252 19.9375 33.35546875 C19.43541016 32.83533203 18.93332031 32.31519531 18.41601562 31.77929688 C17.18470873 30.50108305 15.9660593 29.21069728 14.75 27.91796875 C11.1626476 30.91096691 7.75241066 33.87785325 4.625 37.35546875 C1.75 39.91796875 1.75 39.91796875 -1 39.91796875 C-3.25 38.91796875 -3.25 38.91796875 -5.25 36.91796875 C-5.71875 34.65625 -5.71875 34.65625 -5.25 31.91796875 C-3.46336981 29.76879185 -1.78604497 27.97893028 0.25 26.10546875 C0.77464844 25.60337891 1.29929687 25.10128906 1.83984375 24.58398438 C3.13222532 23.35034742 4.43969599 22.1325525 5.75 20.91796875 C3.83237357 16.27141239 0.30504765 13.55070124 -3.3515625 10.234375 C-5.25 7.91796875 -5.25 7.91796875 -5.59765625 5.25 C-5.25 2.91796875 -5.25 2.91796875 -4.0625 1.04296875 C-2.25 -0.08203125 -2.25 -0.08203125 0 0 Z " fill="#E6542F" transform="translate(102.25,251.08203125)"/>
<path d="M0 0 C16.17 0 32.34 0 49 0 C49.21133989 7.51147806 49.41357151 15.02201626 49.59204102 22.53417969 C49.65559486 25.09128728 49.72459092 27.64826549 49.79907227 30.20507812 C49.9050014 33.87349661 49.99155424 37.54193041 50.07421875 41.2109375 C50.11157639 42.35992523 50.14893402 43.50891296 50.18742371 44.69271851 C50.20767105 45.7536673 50.2279184 46.81461609 50.2487793 47.90771484 C50.27320602 48.84481293 50.29763275 49.78191101 50.32279968 50.74740601 C50.21627579 51.49076202 50.10975189 52.23411804 50 53 C49.01 53.66 48.02 54.32 47 55 C43.70590193 50.98979366 42.98682921 47.66613075 42.5 42.5859375 C42.4175 41.74160156 42.335 40.89726562 42.25 40.02734375 C42.1675 39.15207031 42.085 38.27679688 42 37.375 C41.9175 36.52292969 41.835 35.67085938 41.75 34.79296875 C41.58356397 33.07399663 41.41819635 31.35492073 41.25390625 29.63574219 C40.84804776 25.42261889 40.42417722 21.21131264 40 17 C38.76765625 16.74605469 37.5353125 16.49210937 36.265625 16.23046875 C31.97552093 15.34206784 27.69023943 14.43237163 23.40673828 13.51269531 C21.3659673 13.07796017 19.32197126 12.65840758 17.27734375 12.2421875 C11.18802088 10.90269043 7.28566593 9.61533254 3 5 C2.01 3.35 1.02 1.7 0 0 Z " fill="#A3DDE9" transform="translate(432,326)"/>
<path d="M0 0 C23.43 0 46.86 0 71 0 C71 3.3 71 6.6 71 10 C47.57 10 24.14 10 0 10 C0 6.7 0 3.4 0 0 Z " fill="#A5DFEB" transform="translate(327,224)"/>
<path d="M0 0 C23.43 0 46.86 0 71 0 C71 2.31 71 4.62 71 7 C47.57 7 24.14 7 0 7 C0 4.69 0 2.38 0 0 Z " fill="#A5DFEB" transform="translate(327,162)"/>
<path d="M0 0 C6.93 0 13.86 0 21 0 C19.55644963 2.68567511 18.10790598 5.36883888 16.62890625 8.03515625 C15.66251399 9.7941292 14.72190805 11.56835627 13.83984375 13.37109375 C10.23048564 20.21464371 8.32150284 19.67139886 0 23 C0 15.41 0 7.82 0 0 Z " fill="#A3DDE9" transform="translate(326,326)"/>
<path d="M0 0 C2.66058731 2.14144833 3.7253011 3.56867416 4.37109375 6.93359375 C4.59425621 10.51095567 4.15244562 12.68848069 2.5625 15.9375 C-1.05901976 18.85238176 -4.39406378 19.44335215 -9 19 C-11.92143417 17.23496686 -13.47923817 16.04152365 -15 13 C-15.5811138 5.91041162 -15.5811138 5.91041162 -13.125 2.0625 C-9.05289345 -1.88983871 -5.28514995 -1.34240931 0 0 Z " fill="#3F50C6" transform="translate(450,270)"/>
<path d="M0 0 C2.66058731 2.14144833 3.7253011 3.56867416 4.37109375 6.93359375 C4.59425621 10.51095567 4.15244562 12.68848069 2.5625 15.9375 C-1.05901976 18.85238176 -4.39406378 19.44335215 -9 19 C-11.92143417 17.23496686 -13.47923817 16.04152365 -15 13 C-15.5811138 5.91041162 -15.5811138 5.91041162 -13.125 2.0625 C-9.05289345 -1.88983871 -5.28514995 -1.34240931 0 0 Z " fill="#3F50C6" transform="translate(368,270)"/>
<path d="M0 0 C2.66058731 2.14144833 3.7253011 3.56867416 4.37109375 6.93359375 C4.59425621 10.51095567 4.15244562 12.68848069 2.5625 15.9375 C-1.05901976 18.85238176 -4.39406378 19.44335215 -9 19 C-11.92143417 17.23496686 -13.47923817 16.04152365 -15 13 C-15.5811138 5.91041162 -15.5811138 5.91041162 -13.125 2.0625 C-9.05289345 -1.88983871 -5.28514995 -1.34240931 0 0 Z " fill="#3F50C6" transform="translate(204,270)"/>
<path d="M0 0 C2.66058731 2.14144833 3.7253011 3.56867416 4.37109375 6.93359375 C4.59425621 10.51095567 4.15244562 12.68848069 2.5625 15.9375 C-1.05901976 18.85238176 -4.39406378 19.44335215 -9 19 C-11.92143417 17.23496686 -13.47923817 16.04152365 -15 13 C-15.5811138 5.91041162 -15.5811138 5.91041162 -13.125 2.0625 C-9.05289345 -1.88983871 -5.28514995 -1.34240931 0 0 Z " fill="#3F50C6" transform="translate(204,189)"/>
<path d="M0 0 C2.66058731 2.14144833 3.7253011 3.56867416 4.37109375 6.93359375 C4.59425621 10.51095567 4.15244562 12.68848069 2.5625 15.9375 C-1.05901976 18.85238176 -4.39406378 19.44335215 -9 19 C-11.92143417 17.23496686 -13.47923817 16.04152365 -15 13 C-15.5811138 5.91041162 -15.5811138 5.91041162 -13.125 2.0625 C-9.05289345 -1.88983871 -5.28514995 -1.34240931 0 0 Z " fill="#3F50C6" transform="translate(368,105)"/>
<path d="M0 0 C3.3 0 6.6 0 10 0 C10.4846875 0.87140625 10.969375 1.7428125 11.46875 2.640625 C15.98016484 10.68083766 20.76761854 18.40191415 26 26 C23.56223065 26.88045846 22.36544579 27.1296961 19.88671875 26.25 C10.65310965 21.00176748 4.89226555 15.00408748 1 5 C0.62591202 3.34200511 0.28039193 1.67638577 0 0 Z " fill="#EA582F" transform="translate(359,418)"/>
<path d="M0 0 C4.554787 3.80014774 8.95279259 7.65665546 13 12 C13 12.66 13 13.32 13 14 C10.5 14.875 10.5 14.875 7 15 C2.80783108 12.6473327 -0.66283867 9.43014725 -4 6 C-2.84826645 3.53199953 -1.95216435 1.95216435 0 0 Z " fill="#404DC1" transform="translate(116,278)"/>
<path d="M0 0 C-1.40844718 3.21524305 -3.10344786 5.32183868 -5.625 7.75 C-6.57246094 8.67039063 -6.57246094 8.67039063 -7.5390625 9.609375 C-8.02117187 10.06828125 -8.50328125 10.5271875 -9 11 C-9.99 10.34 -10.98 9.68 -12 9 C-10.6015209 5.5912072 -9.14993067 4.12606165 -6 2.25 C-5.29875 1.82203125 -4.5975 1.3940625 -3.875 0.953125 C-2 0 -2 0 0 0 Z " fill="#434DBE" transform="translate(126,183)"/>
</svg>
